<svg width="99" height="43" viewBox="0 0 99 43" fill="none" xmlns="http://www.w3.org/2000/svg">
<path fill-rule="evenodd" clip-rule="evenodd" d="M24.1263 19.5932C25.2795 17.6548 25.9418 15.3902 25.9418 12.9709C25.9418 5.80727 20.1345 0 12.9709 0C5.80727 0 0 5.80727 0 12.9709C0 20.1345 5.80727 25.9418 12.9709 25.9418C13.0296 25.9418 13.0882 25.9414 13.1466 25.9407L13.1235 34.0788C13.1235 34.1702 13.1692 34.2159 13.2606 34.2159L18.2922 34.1885C19.3981 34.1702 20.3898 33.9006 21.2673 33.3796C22.1447 32.8495 22.8485 32.1411 23.3786 31.2545C23.8996 30.3588 24.1601 29.3717 24.1601 28.2931V20.2316C24.1601 20.0148 24.1488 19.802 24.1263 19.5932ZM20.76 23.3437C22.1116 22.3271 23.258 21.0526 24.1263 19.5932C24.0414 18.8075 23.7967 18.0789 23.3923 17.4074C22.8896 16.5482 22.2133 15.8673 21.3633 15.3646C20.5224 14.8619 19.5809 14.6242 18.539 14.6516L13.288 14.6791C13.2149 14.6791 13.1783 14.7156 13.1783 14.7887L13.1466 25.9407C14.3303 25.9249 15.4757 25.7507 16.5625 25.4381L16.551 30.761H18.2922C18.9868 30.761 19.5718 30.5187 20.0471 30.0343C20.5224 29.5499 20.76 28.9695 20.76 28.2931V23.3437ZM20.76 23.3437C19.5157 24.2796 18.0974 24.9968 16.5625 25.4381L16.5784 18.038L18.539 18.0106C19.1422 17.9923 19.6632 18.2071 20.1019 18.655C20.5406 19.0937 20.76 19.6101 20.76 20.2042V23.3437ZM38.4048 34.216H35.2241C35.151 34.216 35.1144 34.1703 35.1144 34.0789L35.1418 14.7889C35.1418 14.7158 35.1875 14.6792 35.2789 14.6792H38.4048C38.4962 14.6792 38.5419 14.7158 38.5419 14.7889L38.5145 22.4254H42.7235V14.7889C42.7235 14.7158 42.7601 14.6792 42.8332 14.6792H45.9591C46.0505 14.6792 46.0962 14.7158 46.0962 14.7889L46.151 34.0789C46.151 34.1703 46.1053 34.216 46.0139 34.216H42.8606C42.7692 34.216 42.7235 34.1703 42.7235 34.0789V25.8255H38.5145V34.0789C38.5145 34.1703 38.4779 34.216 38.4048 34.216ZM50.8673 33.7225C51.7081 34.2343 52.6222 34.4902 53.6093 34.4902C54.6421 34.4902 55.5744 34.2389 56.4061 33.7362C57.2379 33.2244 57.9051 32.5388 58.4078 31.6797C58.9014 30.8114 59.1481 29.8608 59.1481 28.828L59.0933 14.7889C59.0933 14.7158 59.0567 14.6792 58.9836 14.6792H55.8303C55.7572 14.6792 55.7206 14.7158 55.7206 14.7889V28.828C55.7206 29.4587 55.5195 29.9979 55.1174 30.4458C54.7152 30.8845 54.2125 31.1039 53.6093 31.1039C53.0335 31.1039 52.5445 30.8845 52.1423 30.4458C51.7401 29.9979 51.5391 29.4587 51.5391 28.828V14.7889C51.5391 14.7158 51.5025 14.6792 51.4294 14.6792H48.2761C48.2029 14.6792 48.1664 14.7158 48.1664 14.7889L48.1115 28.828C48.1115 29.8517 48.3583 30.7977 48.8519 31.666C49.3546 32.5251 50.0264 33.2106 50.8673 33.7225ZM67.2097 34.216H63.9878C63.9238 34.216 63.8918 34.1795 63.8918 34.1064L63.9193 26.1271L60.1627 14.7889C60.1444 14.7158 60.1719 14.6792 60.245 14.6792H63.3709C63.4623 14.6792 63.5171 14.7158 63.5354 14.7889L65.6056 22.3431L67.717 14.7889C67.7352 14.7158 67.7809 14.6792 67.8541 14.6792H71.0074C71.0805 14.6792 71.1079 14.7158 71.0896 14.7889L67.2919 26.0174L67.3194 34.1064C67.3194 34.1795 67.2828 34.216 67.2097 34.216ZM72.7348 34.216H81.8109C81.884 34.216 81.9206 34.1795 81.9206 34.1064V30.8982C81.9206 30.8068 81.884 30.7611 81.8109 30.7611H76.0253V25.8529H81.8109C81.884 25.8529 81.9206 25.8164 81.9206 25.7432L81.8932 22.5625C81.8932 22.4894 81.8566 22.4528 81.7835 22.4528H76.0253V18.0656H81.7835C81.8566 18.0656 81.8932 18.029 81.8932 17.9559V14.8163C81.8932 14.7249 81.8566 14.6792 81.7835 14.6792H72.7623C72.6891 14.6792 72.6526 14.7158 72.6526 14.7889L72.6252 34.0789C72.6252 34.1703 72.6617 34.216 72.7348 34.216ZM84.6626 34.216H87.4732C87.6468 34.216 87.7337 34.1429 87.7337 33.9967L87.528 23.8787L92.3951 34.216H94.8629C94.9543 34.216 95 34.1612 95 34.0515L94.9726 14.8986C94.9726 14.7523 94.9177 14.6792 94.8081 14.6792H92.0249C91.8604 14.6792 91.7781 14.7523 91.7781 14.8986L91.9152 25.7432L87.1715 14.6792H84.6352C84.4889 14.6792 84.4158 14.7523 84.4158 14.8986L84.4432 34.0241C84.4432 34.1521 84.5164 34.216 84.6626 34.216ZM30.1987 25.4824C30.5356 25.1641 30.7041 24.771 30.7041 24.3031C30.7041 23.8538 30.5356 23.4607 30.1987 23.1238C29.8617 22.7868 29.4686 22.6184 29.0194 22.6184C28.5514 22.6184 28.149 22.7868 27.812 23.1238C27.4938 23.4607 27.3347 23.8538 27.3347 24.3031C27.3347 24.771 27.4938 25.1641 27.812 25.4824C28.149 25.8193 28.5514 25.9878 29.0194 25.9878C29.4686 25.9878 29.8617 25.8193 30.1987 25.4824Z" fill="#141313"/>
</svg>
