<svg width="100" height="43" viewBox="0 0 100 43" fill="none" xmlns="http://www.w3.org/2000/svg">
<g opacity="0.4">
<path fill-rule="evenodd" clip-rule="evenodd" d="M24.8156 19.6501C25.9688 17.7116 26.6312 15.4471 26.6312 13.0278C26.6312 5.86416 20.8239 0.0568848 13.6602 0.0568848C6.49661 0.0568848 0.689331 5.86416 0.689331 13.0278C0.689331 20.1914 6.49661 25.9987 13.6602 25.9987C13.7189 25.9987 13.7775 25.9983 13.836 25.9975L13.8128 34.1357C13.8128 34.2271 13.8585 34.2728 13.9499 34.2728L18.9815 34.2454C20.0875 34.2271 21.0792 33.9574 21.9566 33.4365C22.8341 32.9063 23.5378 32.198 24.068 31.3114C24.5889 30.4157 24.8494 29.4286 24.8494 28.35V20.2885C24.8494 20.0717 24.8382 19.8589 24.8156 19.6501ZM21.4493 23.4005C22.8009 22.384 23.9474 21.1095 24.8156 19.6501C24.7307 18.8644 24.4861 18.1358 24.0817 17.4642C23.579 16.6051 22.9026 15.9241 22.0526 15.4214C21.2117 14.9187 20.2703 14.6811 19.2283 14.7085L13.9774 14.7359C13.9042 14.7359 13.8677 14.7725 13.8677 14.8456L13.836 25.9975C15.0196 25.9818 16.165 25.8076 17.2518 25.495L17.2404 30.8178H18.9815C19.6762 30.8178 20.2611 30.5756 20.7364 30.0912C21.2117 29.6068 21.4493 29.0264 21.4493 28.35V23.4005ZM21.4493 23.4005C20.205 24.3364 18.7868 25.0536 17.2518 25.495L17.2678 18.0949L19.2283 18.0675C19.8316 18.0492 20.3525 18.264 20.7913 18.7119C21.23 19.1506 21.4493 19.667 21.4493 20.2611V23.4005ZM39.0942 34.2729H35.9134C35.8403 34.2729 35.8037 34.2272 35.8037 34.1358L35.8312 14.8458C35.8312 14.7727 35.8769 14.7361 35.9683 14.7361H39.0942C39.1856 14.7361 39.2313 14.7727 39.2313 14.8458L39.2038 22.4823H43.4128V14.8458C43.4128 14.7727 43.4494 14.7361 43.5225 14.7361H46.6484C46.7398 14.7361 46.7855 14.7727 46.7855 14.8458L46.8403 34.1358C46.8403 34.2272 46.7946 34.2729 46.7032 34.2729H43.5499C43.4585 34.2729 43.4128 34.2272 43.4128 34.1358V25.8824H39.2038V34.1358C39.2038 34.2272 39.1673 34.2729 39.0942 34.2729ZM51.5566 33.7794C52.3975 34.2912 53.3115 34.5471 54.2986 34.5471C55.3314 34.5471 56.2637 34.2958 57.0955 33.7931C57.9272 33.2812 58.5944 32.5957 59.0971 31.7366C59.5907 30.8683 59.8375 29.9177 59.8375 28.8849L59.7826 14.8458C59.7826 14.7727 59.7461 14.7361 59.673 14.7361H56.5196C56.4465 14.7361 56.41 14.7727 56.41 14.8458V28.8849C56.41 29.5155 56.2089 30.0548 55.8067 30.5027C55.4046 30.9414 54.9018 31.1607 54.2986 31.1607C53.7228 31.1607 53.2338 30.9414 52.8316 30.5027C52.4295 30.0548 52.2284 29.5155 52.2284 28.8849V14.8458C52.2284 14.7727 52.1918 14.7361 52.1187 14.7361H48.9654C48.8923 14.7361 48.8557 14.7727 48.8557 14.8458L48.8009 28.8849C48.8009 29.9086 49.0477 30.8546 49.5412 31.7229C50.0439 32.582 50.7157 33.2675 51.5566 33.7794ZM67.899 34.2729H64.6772C64.6132 34.2729 64.5812 34.2364 64.5812 34.1633L64.6086 26.184L60.852 14.8458C60.8338 14.7727 60.8612 14.7361 60.9343 14.7361H64.0602C64.1516 14.7361 64.2064 14.7727 64.2247 14.8458L66.2949 22.4L68.4063 14.8458C68.4246 14.7727 68.4703 14.7361 68.5434 14.7361H71.6967C71.7698 14.7361 71.7972 14.7727 71.779 14.8458L67.9813 26.0743L68.0087 34.1633C68.0087 34.2364 67.9721 34.2729 67.899 34.2729ZM73.4242 34.2729H82.5002C82.5734 34.2729 82.6099 34.2364 82.6099 34.1633V30.9551C82.6099 30.8637 82.5734 30.818 82.5002 30.818H76.7146V25.9098H82.5002C82.5734 25.9098 82.6099 25.8732 82.6099 25.8001L82.5825 22.6194C82.5825 22.5463 82.5459 22.5097 82.4728 22.5097H76.7146V18.1225H82.4728C82.5459 18.1225 82.5825 18.0859 82.5825 18.0128V14.8732C82.5825 14.7818 82.5459 14.7361 82.4728 14.7361H73.4516C73.3785 14.7361 73.3419 14.7727 73.3419 14.8458L73.3145 34.1358C73.3145 34.2272 73.3511 34.2729 73.4242 34.2729ZM85.3519 34.2729H88.1625C88.3362 34.2729 88.423 34.1998 88.423 34.0536L88.2173 23.9355L93.0844 34.2729H95.5522C95.6436 34.2729 95.6893 34.2181 95.6893 34.1084L95.6619 14.9555C95.6619 14.8092 95.6071 14.7361 95.4974 14.7361H92.7142C92.5497 14.7361 92.4675 14.8092 92.4675 14.9555L92.6046 25.8001L87.8609 14.7361H85.3245C85.1783 14.7361 85.1052 14.8092 85.1052 14.9555L85.1326 34.081C85.1326 34.209 85.2057 34.2729 85.3519 34.2729ZM30.888 25.5392C31.2249 25.221 31.3934 24.8279 31.3934 24.36C31.3934 23.9107 31.2249 23.5176 30.888 23.1807C30.5511 22.8437 30.158 22.6753 29.7087 22.6753C29.2407 22.6753 28.8383 22.8437 28.5014 23.1807C28.1831 23.5176 28.024 23.9107 28.024 24.36C28.024 24.8279 28.1831 25.221 28.5014 25.5392C28.8383 25.8762 29.2407 26.0446 29.7087 26.0446C30.158 26.0446 30.5511 25.8762 30.888 25.5392Z" fill="#141313"/>
</g>
</svg>
