<svg width="99" height="44" viewBox="0 0 99 44" fill="none" xmlns="http://www.w3.org/2000/svg">
<path fill-rule="evenodd" clip-rule="evenodd" d="M24.1263 20.3481C25.2795 18.4096 25.9418 16.1451 25.9418 13.7258C25.9418 6.56216 20.1345 0.754883 12.9709 0.754883C5.80727 0.754883 0 6.56216 0 13.7258C0 20.8894 5.80727 26.6967 12.9709 26.6967C13.0296 26.6967 13.0882 26.6963 13.1466 26.6955L13.1235 34.8337C13.1235 34.9251 13.1692 34.9708 13.2606 34.9708L18.2922 34.9434C19.3981 34.9251 20.3898 34.6554 21.2673 34.1345C22.1447 33.6043 22.8485 32.896 23.3786 32.0094C23.8996 31.1137 24.1601 30.1266 24.1601 29.048V20.9865C24.1601 20.7697 24.1488 20.5569 24.1263 20.3481ZM20.76 24.0985C22.1116 23.082 23.258 21.8075 24.1263 20.3481C24.0414 19.5624 23.7967 18.8338 23.3923 18.1622C22.8896 17.3031 22.2133 16.6221 21.3633 16.1194C20.5224 15.6167 19.5809 15.3791 18.539 15.4065L13.288 15.4339C13.2149 15.4339 13.1783 15.4705 13.1783 15.5436L13.1466 26.6955C14.3303 26.6798 15.4757 26.5056 16.5625 26.193L16.551 31.5158H18.2922C18.9868 31.5158 19.5718 31.2736 20.0471 30.7892C20.5224 30.3048 20.76 29.7244 20.76 29.048V24.0985ZM20.76 24.0985C19.5157 25.0344 18.0974 25.7516 16.5625 26.193L16.5784 18.7929L18.539 18.7655C19.1422 18.7472 19.6632 18.962 20.1019 19.4099C20.5406 19.8486 20.76 20.365 20.76 20.9591V24.0985ZM38.4048 34.9709H35.2241C35.151 34.9709 35.1144 34.9252 35.1144 34.8338L35.1418 15.5438C35.1418 15.4707 35.1875 15.4341 35.2789 15.4341H38.4048C38.4962 15.4341 38.5419 15.4707 38.5419 15.5438L38.5145 23.1803H42.7235V15.5438C42.7235 15.4707 42.7601 15.4341 42.8332 15.4341H45.9591C46.0505 15.4341 46.0962 15.4707 46.0962 15.5438L46.151 34.8338C46.151 34.9252 46.1053 34.9709 46.0139 34.9709H42.8606C42.7692 34.9709 42.7235 34.9252 42.7235 34.8338V26.5804H38.5145V34.8338C38.5145 34.9252 38.4779 34.9709 38.4048 34.9709ZM50.8673 34.4774C51.7081 34.9892 52.6222 35.2451 53.6093 35.2451C54.6421 35.2451 55.5744 34.9938 56.4061 34.4911C57.2379 33.9792 57.9051 33.2937 58.4078 32.4346C58.9014 31.5663 59.1481 30.6157 59.1481 29.5829L59.0933 15.5438C59.0933 15.4707 59.0567 15.4341 58.9836 15.4341H55.8303C55.7572 15.4341 55.7206 15.4707 55.7206 15.5438V29.5829C55.7206 30.2135 55.5195 30.7528 55.1174 31.2007C54.7152 31.6394 54.2125 31.8587 53.6093 31.8587C53.0335 31.8587 52.5445 31.6394 52.1423 31.2007C51.7401 30.7528 51.5391 30.2135 51.5391 29.5829V15.5438C51.5391 15.4707 51.5025 15.4341 51.4294 15.4341H48.2761C48.2029 15.4341 48.1664 15.4707 48.1664 15.5438L48.1115 29.5829C48.1115 30.6066 48.3583 31.5526 48.8519 32.4209C49.3546 33.28 50.0264 33.9655 50.8673 34.4774ZM67.2097 34.9709H63.9878C63.9238 34.9709 63.8918 34.9344 63.8918 34.8613L63.9193 26.882L60.1627 15.5438C60.1444 15.4707 60.1719 15.4341 60.245 15.4341H63.3709C63.4623 15.4341 63.5171 15.4707 63.5354 15.5438L65.6056 23.098L67.717 15.5438C67.7352 15.4707 67.7809 15.4341 67.8541 15.4341H71.0074C71.0805 15.4341 71.1079 15.4707 71.0896 15.5438L67.2919 26.7723L67.3194 34.8613C67.3194 34.9344 67.2828 34.9709 67.2097 34.9709ZM72.7348 34.9709H81.8109C81.884 34.9709 81.9206 34.9344 81.9206 34.8613V31.6531C81.9206 31.5617 81.884 31.516 81.8109 31.516H76.0253V26.6078H81.8109C81.884 26.6078 81.9206 26.5712 81.9206 26.4981L81.8932 23.3174C81.8932 23.2443 81.8566 23.2077 81.7835 23.2077H76.0253V18.8205H81.7835C81.8566 18.8205 81.8932 18.7839 81.8932 18.7108V15.5712C81.8932 15.4798 81.8566 15.4341 81.7835 15.4341H72.7623C72.6891 15.4341 72.6526 15.4707 72.6526 15.5438L72.6252 34.8338C72.6252 34.9252 72.6617 34.9709 72.7348 34.9709ZM84.6626 34.9709H87.4732C87.6468 34.9709 87.7337 34.8978 87.7337 34.7516L87.528 24.6335L92.3951 34.9709H94.8629C94.9543 34.9709 95 34.9161 95 34.8064L94.9726 15.6535C94.9726 15.5072 94.9177 15.4341 94.8081 15.4341H92.0249C91.8604 15.4341 91.7781 15.5072 91.7781 15.6535L91.9152 26.4981L87.1715 15.4341H84.6352C84.4889 15.4341 84.4158 15.5072 84.4158 15.6535L84.4432 34.779C84.4432 34.907 84.5164 34.9709 84.6626 34.9709ZM30.1987 26.2372C30.5356 25.919 30.7041 25.5259 30.7041 25.058C30.7041 24.6087 30.5356 24.2156 30.1987 23.8787C29.8617 23.5417 29.4686 23.3733 29.0194 23.3733C28.5514 23.3733 28.149 23.5417 27.812 23.8787C27.4938 24.2156 27.3347 24.6087 27.3347 25.058C27.3347 25.5259 27.4938 25.919 27.812 26.2372C28.149 26.5742 28.5514 26.7426 29.0194 26.7426C29.4686 26.7426 29.8617 26.5742 30.1987 26.2372Z" fill="#F0F0EE"/>
</svg>
